<svg xmlns="http://www.w3.org/2000/svg" width="116" height="110.999" viewBox="0 0 116 110.999">
  <path id="Subtraction_29" data-name="Subtraction 29" d="M116,111H5a5.006,5.006,0,0,1-5-5V5A5.006,5.006,0,0,1,5,0H116V111ZM58.04,19.06c-14.168,0-25.694,10.427-25.694,23.244,0,10.673,6.986,23.448,12.847,32.285A159.589,159.589,0,0,0,58.04,91.377,157.816,157.816,0,0,0,70.887,74.589C76.747,65.752,83.733,52.978,83.733,42.3,83.733,29.488,72.207,19.06,58.04,19.06Zm0,36.158A10.315,10.315,0,1,1,65.3,52.189,10.2,10.2,0,0,1,58.04,55.219Z" fill="#5b2067"/>
</svg>
